#Comment line ignore any data following # character 
#Hierarchical Translation and Rotation (.htr) file 
[Header]	
#Header keywords are followed by a single value 
FileType HTR		#Single word string
DataType HTRS		#Translation followed by rotation and scale data
FileVersion 1		#integer
NumSegments 84		#integer
NumFrames 2		#integer
DataFrameRate 30		#integer, data frame rate in this file
EulerRotationOrder ZYX
CalibrationUnits mm
RotationUnits Degrees
GlobalAxisofGravity Y
BoneLengthAxis Y
ScaleFactor 1.00
[SegmentNames&Hierarchy]
#CHILD	PARENT
MASTER GLOBAL
root MASTER
chest root
L_mid_tent01 root
R_mid_tent01 root
spine01 root
Bip01_Neck chest
L_humerus chest
R_humerus chest
weapon_bone chest
Bip01_Head Bip01_Neck
eye_left_bone Bip01_Head
eye_right_bone Bip01_Head
L_forearm L_humerus
L_front_hand L_forearm
L_weapon_bone L_forearm
L_front_hand01_01 L_front_hand
L_front_hand02_01 L_front_hand
L_front_hand03_01 L_front_hand
L_front_hand01_02 L_front_hand01_01
L_front_hand02_02 L_front_hand02_01
L_front_hand03_02 L_front_hand03_01
R_forearm R_humerus
R_front_hand R_forearm
R_weapon_bone R_forearm
R_front_hand01_01 R_front_hand
R_front_hand02_01 R_front_hand
R_front_hand03_01 R_front_hand
R_front_hand01_02 R_front_hand01_01
R_front_hand02_02 R_front_hand02_01
R_front_hand03_02 R_front_hand03_01
null_rope01_connect L_mid_tent01
Rope1_Seg01 null_rope01_connect
Rope1_Seg02 Rope1_Seg01
Rope1_Seg03 Rope1_Seg02
Rope1_Seg04 Rope1_Seg03
Rope1_Seg05 Rope1_Seg04
Rope1_Seg06 Rope1_Seg05
Rope1_Seg07 Rope1_Seg06
Rope1_Seg09 Rope1_Seg07
L_mid_hand01 Rope1_Seg09
L_mid_hand02 Rope1_Seg09
L_mid_hand03 Rope1_Seg09
null_rope02_connect R_mid_tent01
Rope2_Seg01 null_rope02_connect
Rope2_Seg02 Rope2_Seg01
Rope2_Seg03 Rope2_Seg02
Rope2_Seg04 Rope2_Seg03
Rope2_Seg05 Rope2_Seg04
Rope2_Seg06 Rope2_Seg05
Rope2_Seg07 Rope2_Seg06
Rope2_Seg09 Rope2_Seg07
R_mid_hand01 Rope2_Seg09
R_mid_hand02 Rope2_Seg09
R_mid_hand03 Rope2_Seg09
spine02 spine01
spine03 spine02
pelvis spine03
null_rope03_connect pelvis
null_rope04_connect pelvis
Rope3_Seg01 null_rope03_connect
Rope3_Seg02 Rope3_Seg01
Rope3_Seg03 Rope3_Seg02
Rope3_Seg04 Rope3_Seg03
Rope3_Seg05 Rope3_Seg04
Rope3_Seg06 Rope3_Seg05
Rope3_Seg07 Rope3_Seg06
Rope3_Seg08 Rope3_Seg07
Rope3_Seg09 Rope3_Seg08
R_rear_hand01 Rope3_Seg09
R_rear_hand02 Rope3_Seg09
R_rear_hand03 Rope3_Seg09
Rope4_Seg01 null_rope04_connect
Rope4_Seg02 Rope4_Seg01
Rope4_Seg03 Rope4_Seg02
Rope4_Seg04 Rope4_Seg03
Rope4_Seg05 Rope4_Seg04
Rope4_Seg06 Rope4_Seg05
Rope4_Seg07 Rope4_Seg06
Rope4_Seg08 Rope4_Seg07
Rope4_Seg09 Rope4_Seg08
L_rear_hand01 Rope4_Seg09
L_rear_hand02 Rope4_Seg09
L_rear_hand03 Rope4_Seg09
[BasePosition]
#SegmentName Tx, Ty, Tz, Rx, Ry, Rz, BoneLength
MASTER 0.000000 0.000000 0.000000 -90.000000 0.000000 0.000000 10.000000 
root 0.000000 0.000000 0.000000 0.000000 0.000000 0.000000 10.000000 
chest 0.000000 0.000000 0.000000 0.000000 0.000000 0.000000 10.000000 
L_mid_tent01 0.000000 0.000000 0.000000 0.000000 0.000000 0.000000 10.000000 
R_mid_tent01 0.000000 0.000000 0.000000 0.000000 0.000000 0.000000 10.000000 
spine01 0.000000 0.000000 0.000000 0.000000 0.000000 0.000000 10.000000 
Bip01_Neck 0.000000 0.000000 0.000000 0.000000 0.000000 0.000000 10.000000 
L_humerus 0.000000 0.000000 0.000000 0.000000 0.000000 0.000000 10.000000 
R_humerus 0.000000 0.000000 0.000000 0.000000 0.000000 0.000000 10.000000 
weapon_bone 0.000000 0.000000 0.000000 0.000000 0.000000 0.000000 10.000000 
Bip01_Head 0.000000 0.000000 0.000000 0.000000 0.000000 0.000000 10.000000 
eye_left_bone 0.000000 0.000000 0.000000 0.000000 0.000000 0.000000 10.000000 
eye_right_bone 0.000000 0.000000 0.000000 0.000000 0.000000 0.000000 10.000000 
L_forearm 0.000000 0.000000 0.000000 0.000000 0.000000 0.000000 10.000000 
L_front_hand 0.000000 0.000000 0.000000 0.000000 0.000000 0.000000 10.000000 
L_weapon_bone 0.000000 0.000000 0.000000 0.000000 0.000000 0.000000 10.000000 
L_front_hand01_01 0.000000 0.000000 0.000000 0.000000 0.000000 0.000000 10.000000 
L_front_hand02_01 0.000000 0.000000 0.000000 0.000000 0.000000 0.000000 10.000000 
L_front_hand03_01 0.000000 0.000000 0.000000 0.000000 0.000000 0.000000 10.000000 
L_front_hand01_02 0.000000 0.000000 0.000000 0.000000 0.000000 0.000000 10.000000 
L_front_hand02_02 0.000000 0.000000 0.000000 0.000000 0.000000 0.000000 10.000000 
L_front_hand03_02 0.000000 0.000000 0.000000 0.000000 0.000000 0.000000 10.000000 
R_forearm 0.000000 0.000000 0.000000 0.000000 0.000000 0.000000 10.000000 
R_front_hand 0.000000 0.000000 0.000000 0.000000 0.000000 0.000000 10.000000 
R_weapon_bone 0.000000 0.000000 0.000000 0.000000 0.000000 0.000000 10.000000 
R_front_hand01_01 0.000000 0.000000 0.000000 0.000000 0.000000 0.000000 10.000000 
R_front_hand02_01 0.000000 0.000000 0.000000 0.000000 0.000000 0.000000 10.000000 
R_front_hand03_01 0.000000 0.000000 0.000000 0.000000 0.000000 0.000000 10.000000 
R_front_hand01_02 0.000000 0.000000 0.000000 0.000000 0.000000 0.000000 10.000000 
R_front_hand02_02 0.000000 0.000000 0.000000 0.000000 0.000000 0.000000 10.000000 
R_front_hand03_02 0.000000 0.000000 0.000000 0.000000 0.000000 0.000000 10.000000 
null_rope01_connect 0.000000 0.000000 0.000000 0.000000 0.000000 0.000000 10.000000 
Rope1_Seg01 0.000000 0.000000 0.000000 0.000000 0.000000 0.000000 10.000000 
Rope1_Seg02 0.000000 0.000000 0.000000 0.000000 0.000000 0.000000 10.000000 
Rope1_Seg03 0.000000 0.000000 0.000000 0.000000 0.000000 0.000000 10.000000 
Rope1_Seg04 0.000000 0.000000 0.000000 0.000000 0.000000 0.000000 10.000000 
Rope1_Seg05 0.000000 0.000000 0.000000 0.000000 0.000000 0.000000 10.000000 
Rope1_Seg06 0.000000 0.000000 0.000000 0.000000 0.000000 0.000000 10.000000 
Rope1_Seg07 0.000000 0.000000 0.000000 0.000000 0.000000 0.000000 10.000000 
Rope1_Seg09 0.000000 0.000000 0.000000 0.000000 0.000000 0.000000 10.000000 
L_mid_hand01 0.000000 0.000000 0.000000 0.000000 0.000000 0.000000 10.000000 
L_mid_hand02 0.000000 0.000000 0.000000 0.000000 0.000000 0.000000 10.000000 
L_mid_hand03 0.000000 0.000000 0.000000 0.000000 0.000000 0.000000 10.000000 
null_rope02_connect 0.000000 0.000000 0.000000 0.000000 0.000000 0.000000 10.000000 
Rope2_Seg01 0.000000 0.000000 0.000000 0.000000 0.000000 0.000000 10.000000 
Rope2_Seg02 0.000000 0.000000 0.000000 0.000000 0.000000 0.000000 10.000000 
Rope2_Seg03 0.000000 0.000000 0.000000 0.000000 0.000000 0.000000 10.000000 
Rope2_Seg04 0.000000 0.000000 0.000000 0.000000 0.000000 0.000000 10.000000 
Rope2_Seg05 0.000000 0.000000 0.000000 0.000000 0.000000 0.000000 10.000000 
Rope2_Seg06 0.000000 0.000000 0.000000 0.000000 0.000000 0.000000 10.000000 
Rope2_Seg07 0.000000 0.000000 0.000000 0.000000 0.000000 0.000000 10.000000 
Rope2_Seg09 0.000000 0.000000 0.000000 0.000000 0.000000 0.000000 10.000000 
R_mid_hand01 0.000000 0.000000 0.000000 0.000000 0.000000 0.000000 10.000000 
R_mid_hand02 0.000000 0.000000 0.000000 0.000000 0.000000 0.000000 10.000000 
R_mid_hand03 0.000000 0.000000 0.000000 0.000000 0.000000 0.000000 10.000000 
spine02 0.000000 0.000000 0.000000 0.000000 0.000000 0.000000 10.000000 
spine03 0.000000 0.000000 0.000000 0.000000 0.000000 0.000000 10.000000 
pelvis 0.000000 0.000000 0.000000 0.000000 0.000000 0.000000 10.000000 
null_rope03_connect 0.000000 0.000000 0.000000 0.000000 0.000000 0.000000 10.000000 
null_rope04_connect 0.000000 0.000000 0.000000 0.000000 0.000000 0.000000 10.000000 
Rope3_Seg01 0.000000 0.000000 0.000000 0.000000 0.000000 0.000000 10.000000 
Rope3_Seg02 0.000000 0.000000 0.000000 0.000000 0.000000 0.000000 10.000000 
Rope3_Seg03 0.000000 0.000000 0.000000 0.000000 0.000000 0.000000 10.000000 
Rope3_Seg04 0.000000 0.000000 0.000000 0.000000 0.000000 0.000000 10.000000 
Rope3_Seg05 0.000000 0.000000 0.000000 0.000000 0.000000 0.000000 10.000000 
Rope3_Seg06 0.000000 0.000000 0.000000 0.000000 0.000000 0.000000 10.000000 
Rope3_Seg07 0.000000 0.000000 0.000000 0.000000 0.000000 0.000000 10.000000 
Rope3_Seg08 0.000000 0.000000 0.000000 0.000000 0.000000 0.000000 10.000000 
Rope3_Seg09 0.000000 0.000000 0.000000 0.000000 0.000000 0.000000 10.000000 
R_rear_hand01 0.000000 0.000000 0.000000 0.000000 0.000000 0.000000 10.000000 
R_rear_hand02 0.000000 0.000000 0.000000 0.000000 0.000000 0.000000 10.000000 
R_rear_hand03 0.000000 0.000000 0.000000 0.000000 0.000000 0.000000 10.000000 
Rope4_Seg01 0.000000 0.000000 0.000000 0.000000 0.000000 0.000000 10.000000 
Rope4_Seg02 0.000000 0.000000 0.000000 0.000000 0.000000 0.000000 10.000000 
Rope4_Seg03 0.000000 0.000000 0.000000 0.000000 0.000000 0.000000 10.000000 
Rope4_Seg04 0.000000 0.000000 0.000000 0.000000 0.000000 0.000000 10.000000 
Rope4_Seg05 0.000000 0.000000 0.000000 0.000000 0.000000 0.000000 10.000000 
Rope4_Seg06 0.000000 0.000000 0.000000 0.000000 0.000000 0.000000 10.000000 
Rope4_Seg07 0.000000 0.000000 0.000000 0.000000 0.000000 0.000000 10.000000 
Rope4_Seg08 0.000000 0.000000 0.000000 0.000000 0.000000 0.000000 10.000000 
Rope4_Seg09 0.000000 0.000000 0.000000 0.000000 0.000000 0.000000 10.000000 
L_rear_hand01 0.000000 0.000000 0.000000 0.000000 0.000000 0.000000 10.000000 
L_rear_hand02 0.000000 0.000000 0.000000 0.000000 0.000000 0.000000 10.000000 
L_rear_hand03 0.000000 0.000000 0.000000 0.000000 0.000000 0.000000 10.000000 
#Beginning of Data. Separated by tabs
#Fr	Tx	Ty	Tz	Rx	Ry	Rz	SF
[MASTER]
27 0.000000 0.000000 0.000000 0.001660 0.001660 0.001660 0.000000
28 0.000000 0.000000 0.000000 0.001660 0.001660 0.001660 0.000000
[root]
27 -27.884632 -56.740528 1501.395752 -78.216667 -39.024372 -87.973343 1502.726196
28 -27.884632 -56.740528 1501.395752 -78.216667 -39.024372 -87.973343 1502.726196
[chest]
27 -84.512650 -34.090519 0.000000 -2.594534 -0.201364 179.701141 91.129311
28 -84.512650 -34.090519 0.000000 -2.594532 -0.201363 179.701126 91.129311
[L_mid_tent01]
27 27.299191 22.179106 -249.918701 3.862628 36.229187 81.347610 252.381699
28 27.299194 22.179106 -249.918701 3.862628 36.229202 81.347610 252.381699
[R_mid_tent01]
27 23.228794 24.509907 226.238495 160.432037 -47.061241 87.899765 228.744751
28 23.228794 24.509907 226.238495 160.432037 -47.061241 87.899765 228.744751
[spine01]
27 -0.361383 -0.195265 0.000000 0.002062 0.001122 32.879829 0.410763
28 -0.361383 -0.195265 0.000000 0.002062 0.001122 32.879829 0.410763
[Bip01_Neck]
27 165.484543 71.581718 0.000119 176.643677 -1.657967 43.431911 180.302734
28 165.484543 71.581718 0.000119 176.643677 -1.657967 43.431911 180.302734
[L_humerus]
27 -13.983130 -135.272980 -120.471481 156.317398 70.210068 -112.010254 181.680161
28 -13.983130 -135.272980 -120.471481 156.317398 70.210068 -112.010254 181.680161
[R_humerus]
27 -13.983309 -135.273102 125.287651 -172.382263 -66.903831 -92.553993 184.909012
28 -13.983309 -135.273102 125.287651 -172.382263 -66.903831 -92.553993 184.909012
[weapon_bone]
27 235.964890 -300.705902 0.000000 0.000000 -89.951546 -128.212341 382.234833
28 235.964890 -300.705902 0.000000 0.000000 -89.951546 -128.212341 382.234833
[Bip01_Head]
27 213.444351 185.715637 11.776943 -7.367058 3.282593 -43.888042 283.173950
28 213.444366 185.715637 11.776943 -7.324809 3.283345 -43.891136 283.173950
[eye_left_bone]
27 -24.626970 125.451866 -64.772606 0.000000 -90.000000 -99.840431 143.318359
28 -24.626970 125.451866 -64.772606 0.000000 -90.000000 -99.840431 143.318359
[eye_right_bone]
27 -24.626970 125.451866 64.327362 0.000000 -89.965736 80.156380 143.117676
28 -24.626970 125.451866 64.327362 0.000000 -89.965736 80.156380 143.117676
[L_forearm]
27 322.776093 0.000000 -0.000119 0.000396 -0.002314 -109.419975 322.776093
28 322.776093 0.000000 -0.000119 0.000396 -0.002314 -109.419975 322.776093
[L_front_hand]
27 241.149185 -0.042021 -3.300071 -178.667953 -1.835447 -27.422350 241.171753
28 241.149185 -0.042021 -3.300071 -178.667953 -1.835447 -27.422350 241.171753
[L_weapon_bone]
27 156.183838 0.000000 0.000000 0.000014 0.000007 0.000001 156.183838
28 156.183838 0.000000 0.000000 0.000014 0.000007 0.000001 156.183838
[L_front_hand01_01]
27 86.095154 20.947098 -0.655860 -0.350020 -0.489575 73.324707 88.609184
28 86.095154 20.947098 -0.655860 -0.352470 -0.487814 73.899178 88.609184
[L_front_hand02_01]
27 86.935165 -11.437475 24.513514 151.294510 -58.944016 -57.758976 91.046425
28 86.935165 -11.437475 24.513514 152.134689 -59.215076 -58.742878 91.046425
[L_front_hand03_01]
27 86.637497 -14.123976 -20.424902 -151.030289 57.165070 -59.290516 90.126129
28 86.637497 -14.123976 -20.424902 -151.816284 57.442535 -60.226055 90.126129
[L_front_hand01_02]
27 71.020905 -0.000179 0.000030 0.000324 -0.002325 -105.863602 71.020905
28 71.020905 -0.000179 0.000030 0.000325 -0.002325 -105.915688 71.020905
[L_front_hand02_02]
27 71.020927 -0.000119 0.000060 0.000324 -0.002325 -105.863602 71.020927
28 71.020927 -0.000119 0.000060 0.000325 -0.002325 -105.915688 71.020927
[L_front_hand03_02]
27 71.020905 -0.000060 0.000060 0.000324 -0.002325 -105.863602 71.020905
28 71.020905 -0.000060 0.000060 0.000325 -0.002325 -105.915688 71.020905
[R_forearm]
27 322.776428 -0.000060 0.000030 0.202103 0.065158 -108.062805 322.776428
28 322.776428 -0.000060 0.000030 0.202103 0.065158 -108.062805 322.776428
[R_front_hand]
27 238.847015 -0.006795 2.210259 -2.635298 -10.645461 -26.312506 238.857239
28 238.847015 -0.006795 2.210259 -2.635298 -10.645461 -26.312506 238.857239
[R_weapon_bone]
27 155.664093 0.002503 -0.000030 0.003487 0.001180 -90.988930 155.664078
28 155.664093 0.002503 -0.000030 0.003487 0.001180 -90.988930 155.664078
[R_front_hand01_01]
27 87.624611 14.231146 22.918642 -154.633514 -59.950634 61.746063 91.683487
28 87.624611 14.231146 22.918642 -154.633499 -59.950619 61.746044 91.683487
[R_front_hand02_01]
27 89.356956 14.367283 -19.491137 154.602661 58.302849 63.744389 92.579636
28 89.356956 14.367283 -19.491137 154.602661 58.302849 63.744389 92.579636
[R_front_hand03_01]
27 87.286232 -22.307278 -0.143439 0.162155 -0.423168 -75.767921 90.091743
28 87.286232 -22.307278 -0.143439 0.162155 -0.423168 -75.767921 90.091743
[R_front_hand01_02]
27 71.020905 0.000060 0.000119 0.002323 -0.000334 106.381714 71.020905
28 71.020905 0.000060 0.000119 0.002323 -0.000334 106.381714 71.020905
[R_front_hand02_02]
27 71.020844 -0.000030 -0.000119 0.002323 -0.000334 106.381714 71.020836
28 71.020844 -0.000030 -0.000119 0.002323 -0.000334 106.381714 71.020836
[R_front_hand03_02]
27 71.020905 0.000000 0.000030 0.002323 -0.000334 106.381714 71.020905
28 71.020905 0.000000 0.000030 0.002323 -0.000334 106.381714 71.020905
[null_rope01_connect]
27 328.732483 0.000000 -0.000238 -121.867134 -66.548210 170.046234 328.732483
28 328.732483 0.000000 -0.000238 -121.867149 -66.548218 170.046249 328.732483
[Rope1_Seg01]
27 -0.000020 0.000001 0.000006 111.074707 9.293777 -159.140060 0.000021
28 -0.000019 0.000000 0.000000 111.533615 9.266005 -160.496384 0.000019
[Rope1_Seg02]
27 139.999863 -0.000179 0.000000 20.922266 -15.476956 -10.768993 139.999863
28 139.999863 -0.000179 0.000000 19.404148 -15.630907 -9.957349 139.999863
[Rope1_Seg03]
27 139.999924 0.000060 -0.000060 22.614250 -28.324020 -11.814404 139.999924
28 139.999924 0.000060 -0.000060 21.000372 -27.876871 -11.175331 139.999924
[Rope1_Seg04]
27 139.999924 -0.000060 -0.000119 3.760097 -29.391825 5.284860 139.999924
28 139.999924 -0.000060 -0.000119 3.356540 -30.080545 5.373449 139.999924
[Rope1_Seg05]
27 139.999832 0.000119 -0.000060 -5.937808 -25.355303 18.954720 139.999832
28 139.999832 0.000119 -0.000060 -6.215269 -25.595758 18.358343 139.999832
[Rope1_Seg06]
27 139.999954 0.000119 -0.000060 -3.677352 -11.643991 6.766514 139.999954
28 139.999954 0.000119 -0.000060 -3.783951 -11.214070 6.058791 139.999954
[Rope1_Seg07]
27 139.999985 0.000060 0.000000 -2.488341 -5.750836 2.727258 139.999985
28 139.999985 0.000060 0.000000 -2.548620 -5.567407 2.433744 139.999985
[Rope1_Seg09]
27 121.602913 0.000119 -0.000089 -89.793175 -1.359789 0.847147 121.602913
28 121.602913 0.000119 -0.000089 -89.793175 -1.359789 0.847147 121.602913
[L_mid_hand01]
27 103.859421 1.038730 8.195221 130.544373 -67.584534 -38.866943 104.187431
28 103.859421 1.038730 8.195221 130.544373 -67.584534 -38.866943 104.187431
[L_mid_hand02]
27 105.572853 -4.139662 -10.864139 -168.923172 43.409321 -73.498909 106.211075
28 105.572853 -4.139662 -10.864139 -168.923172 43.409309 -73.498886 106.211075
[L_mid_hand03]
27 104.641464 17.579376 -3.913581 -6.012627 17.808174 74.893669 106.179977
28 104.641464 17.579376 -3.913581 -6.012627 17.808174 74.893669 106.179977
[null_rope02_connect]
27 328.732849 0.000179 -0.000119 -116.101486 27.529917 12.015828 328.732849
28 328.732849 0.000179 -0.000119 -116.101486 27.529917 12.015828 328.732849
[Rope2_Seg01]
27 -0.000144 0.000089 0.000000 -45.183662 8.343609 -6.739475 0.000169
28 -0.000153 0.000088 0.000000 -44.281109 7.647085 -6.799860 0.000176
[Rope2_Seg02]
27 139.999741 -0.000060 -0.000119 -13.763602 -0.861657 13.943615 139.999756
28 139.999741 -0.000060 -0.000119 -13.946328 -0.575753 14.048053 139.999756
[Rope2_Seg03]
27 140.000107 0.000030 0.000000 -12.632103 -8.291778 21.906239 140.000107
28 140.000107 0.000030 0.000000 -12.959031 -7.902605 22.288515 140.000107
[Rope2_Seg04]
27 139.999802 0.000000 -0.000060 -6.033710 -13.365602 20.260706 139.999802
28 139.999802 0.000000 -0.000060 -6.157712 -13.211678 20.588797 139.999802
[Rope2_Seg05]
27 139.999985 -0.000060 0.000119 -0.141600 -1.510871 29.592529 139.999985
28 139.999985 -0.000060 0.000119 -0.271036 -1.409080 28.229946 139.999985
[Rope2_Seg06]
27 139.999893 -0.000030 -0.000119 6.620842 0.496231 30.026447 139.999893
28 139.999893 -0.000030 -0.000119 6.197523 0.661685 29.719893 139.999893
[Rope2_Seg07]
27 139.999893 0.000060 -0.000060 4.798105 0.740579 13.593021 139.999893
28 139.999893 0.000060 -0.000060 4.738178 0.700881 14.009493 139.999893
[Rope2_Seg09]
27 121.338966 0.000089 -0.000060 33.793236 -1.359788 -0.847141 121.338966
28 121.338966 0.000089 -0.000060 33.793236 -1.359788 -0.847141 121.338966
[R_mid_hand01]
27 104.680779 11.144459 -10.335981 -16.212063 45.237247 70.462852 105.778534
28 104.680779 11.144459 -10.335981 -16.212063 45.237247 70.462852 105.778534
[R_mid_hand02]
27 104.070427 2.443552 8.231699 49.067387 -67.749794 39.286469 104.424065
28 104.070427 2.443552 8.231699 49.067368 -67.749771 39.286453 104.424065
[R_mid_hand03]
27 106.028137 -11.221827 -5.996406 -177.101105 15.551026 -76.585571 106.788818
28 106.028137 -11.221827 -5.996406 -177.101105 15.551026 -76.585571 106.788818
[spine02]
27 129.756927 0.001550 0.000119 0.360061 -4.044797 -12.915058 129.756927
28 129.756927 0.001550 0.000119 0.360061 -4.044797 -12.915058 129.756927
[spine03]
27 78.614067 0.081635 -4.899015 1.896495 3.831288 16.473045 78.766602
28 78.614067 0.081635 -4.899015 1.896495 3.831288 16.473045 78.766602
[pelvis]
27 169.435242 0.051022 0.000000 -0.060465 -0.180225 14.087930 169.435257
28 169.435242 0.051022 0.000000 -0.060465 -0.180225 14.087930 169.435257
[null_rope03_connect]
27 -1.257226 -2.466202 137.391083 43.766441 -75.818817 34.520535 137.418976
28 -1.257226 -2.466202 137.391083 43.766438 -75.818787 34.520519 137.418976
[null_rope04_connect]
27 -1.259640 -2.480268 -137.844437 43.766441 -75.818817 34.520535 137.872513
28 -1.259640 -2.480268 -137.844437 43.766438 -75.818787 34.520519 137.872513
[Rope3_Seg01]
27 0.000010 0.000001 -0.000006 92.821053 -78.830452 40.538521 0.000011
28 0.000010 0.000000 -0.000000 98.801605 -79.510353 35.055622 0.000010
[Rope3_Seg02]
27 139.999924 -0.000119 0.000060 6.219342 -12.946980 -2.080497 139.999924
28 139.999924 -0.000119 0.000060 5.678830 -12.223945 -2.862999 139.999924
[Rope3_Seg03]
27 139.999924 -0.000119 0.000119 13.774574 -18.995928 -0.121950 139.999924
28 139.999924 -0.000119 0.000119 11.952307 -16.822935 -1.490544 139.999924
[Rope3_Seg04]
27 139.999924 0.000119 0.000000 18.140657 -19.011814 9.344330 139.999924
28 139.999924 0.000119 0.000000 16.631470 -16.724176 6.144612 139.999924
[Rope3_Seg05]
27 139.999924 -0.000238 0.000060 17.460791 -18.123289 1.385733 139.999924
28 139.999924 -0.000238 0.000060 18.212688 -17.204346 -0.816312 139.999924
[Rope3_Seg06]
27 139.999893 -0.000119 -0.000060 31.585554 -24.181446 -0.701623 139.999893
28 139.999893 -0.000119 -0.000060 41.879936 -26.146191 -2.659736 139.999893
[Rope3_Seg07]
27 139.999771 0.000060 -0.000119 19.557856 -10.975102 8.741179 139.999771
28 139.999771 0.000060 -0.000119 25.074078 -11.993875 11.176264 139.999771
[Rope3_Seg08]
27 139.999985 -0.000060 0.000000 8.511769 -3.692610 6.379488 139.999985
28 139.999985 -0.000060 0.000000 9.077223 -2.919863 7.970488 139.999985
[Rope3_Seg09]
27 90.185997 -0.000179 -0.000060 89.793228 -1.359877 -0.847183 90.185997
28 90.185997 -0.000179 -0.000060 89.793228 -1.359877 -0.847183 90.185997
[R_rear_hand01]
27 103.366196 -6.073594 -10.757982 -177.714203 24.565960 -73.910950 104.101845
28 103.366196 -6.073594 -10.757982 -177.714203 24.565960 -73.910950 104.101845
[R_rear_hand02]
27 100.509819 12.039542 -7.992327 -12.874829 36.868488 72.167213 101.543350
28 100.509819 12.039542 -7.992327 -12.874829 36.868488 72.167213 101.543350
[R_rear_hand03]
27 101.539970 5.215704 5.435467 71.484581 -71.816628 21.513813 101.819031
28 101.539970 5.215704 5.435467 71.484581 -71.816628 21.513813 101.819031
[Rope4_Seg01]
27 0.000010 0.000038 -0.000114 69.419563 -41.426739 -127.764946 0.000121
28 0.000010 0.000038 -0.000114 66.372101 -39.089088 -125.108696 0.000121
[Rope4_Seg02]
27 139.999985 0.000060 0.000119 -6.072732 -9.750726 -14.398888 139.999985
28 139.999985 0.000060 0.000119 -3.590685 -12.997355 -13.106564 139.999985
[Rope4_Seg03]
27 139.999924 0.000000 -0.000238 -26.480600 -11.325190 -24.593716 139.999924
28 139.999924 0.000000 -0.000238 -20.693951 -16.449417 -20.799084 139.999924
[Rope4_Seg04]
27 139.999985 0.000000 0.000119 -40.528801 1.883376 -21.980093 139.999985
28 139.999985 0.000000 0.000119 -51.768940 -5.092021 -19.394302 139.999985
[Rope4_Seg05]
27 139.999802 -0.000060 -0.000119 -35.211094 12.846519 -21.016798 139.999802
28 139.999802 -0.000060 -0.000119 -43.853611 10.767671 -17.649372 139.999802
[Rope4_Seg06]
27 139.999924 0.000000 0.000060 -19.552547 24.548931 -14.096584 139.999924
28 139.999924 0.000000 0.000060 -18.972216 24.425072 -8.320146 139.999924
[Rope4_Seg07]
27 139.999802 0.000000 0.000000 -3.297240 13.508546 -2.237454 139.999802
28 139.999802 0.000000 0.000000 -3.280285 14.267279 0.144494 139.999802
[Rope4_Seg08]
27 139.999924 0.000000 0.000119 -2.379335 6.683467 -0.726961 139.999924
28 139.999924 0.000000 0.000119 -2.434667 7.244474 0.501797 139.999924
[Rope4_Seg09]
27 90.185791 0.000060 0.000060 -135.617828 2.228885 0.850567 90.185791
28 90.185791 0.000060 0.000060 -135.617828 2.228885 0.850567 90.185791
[L_rear_hand01]
27 101.696655 -8.392275 -7.654577 -12.874829 -36.868488 107.832764 102.329041
28 101.696655 -8.392275 -7.654577 -12.874829 -36.868488 107.832764 102.329041
[L_rear_hand02]
27 102.726799 -1.568258 5.773216 71.484581 71.816628 158.486160 102.900848
28 102.726799 -1.568258 5.773216 71.484581 71.816628 158.486160 102.900848
[L_rear_hand03]
27 104.552910 9.721220 -10.420293 -177.714203 -24.565960 -106.089035 105.519653
28 104.552910 9.721220 -10.420293 -177.714203 -24.565960 -106.089035 105.519653
